<svg id="Layer_1" data-name="Layer 1" xmlns="http://www.w3.org/2000/svg" viewBox="0 0 2048 600"><defs><style>.cls-1{fill:#f06ba8;}</style></defs><title>drip</title><path class="cls-1" d="M1399.55-4.4A166.75,166.75,0,0,1,1418.72,24c17.94,33.73,19.16,65.1,19.83,89.17.21,7.27-.24,1.39-2.28,62-1.54,45.78.24,3.94-.55,38.9-.22,9.91-.41,15.35.52,23.56,1.5,13.24,3.58,13.19,3.23,21-.54,11.91-5.56,14.95-3.9,25.8.64,4.17,1.51,9.9,6.44,12.41s12.23,1,16.35-2.57c2.41-2.09,4.18-5.27,3.84-24-.22-11.72-1-13.91-1-22.3,0-9.89,1.09-13.83,1.93-23.15,1.2-13.38.51-22,0-34.31-.22-5.28-1.58-38.25-.08-66,1.8-33.36,2.7-50,10.66-66,4.74-9.53,21.73-43.63,56.74-48.88,2.94-.44,21.27-3,38.46,6,18,9.4,30.88,29.37,37.51,96.91,5.62,57.31,0,80,1,163,.07,6.16.69,27.55,1.92,70.32,1.71,59,2.85,90.65,2.88,123.49,0,27.37,0,41.05,0,41.17-2.21,10.1-6.35,20.73,0,29.16,1.25,1.66,4.57,5.44,9.62,6,7.41.83,15.09-5.68,16.34-12,.66-3.3-.85-4.49-1.92-10.29-1.2-6.51-.42-11.06,0-15.44,1-10.24-.26-17-1-30.87-1.41-28,.75-57.83,0-100.34-.56-31.95-2-29.62-2.89-60.89-.24-9.1-1-42.43,2.68-103,6.66-109.06,17.06-130.21,32.91-142.31,5.84-4.47,19.73-13.27,37.5-20.58,15.5-6.38,24.76-10.07,37.51-9.44,2.83.14,27.5,1.67,36.54,16.3,3.27,5.28,3.14,12.67,2.89,27.44-.28,16.13-2.7,21.2,1.92,27.44,3.24,4.38,9.72,9,17.31,8.58,8.1-.47,13-6.47,13.56-7.16,6.28-7.93,2-17.34.87-27.14-3.5-29.72,22.45-54.79,27.88-60,6.77-6.53,17.55-16.94,35.59-20.58,3.41-.69,27.55-5.56,42.31,6.86,5.16,4.34,8,9.82,11.54,26.59,4,18.91,4.68,32.57,5.77,51.45,3.46,59.58,4.16,55.51,3.85,57.46-1.15,7.23-3.74,18.89,2.88,30,1.72,2.89,5.5,9,12.5,10.29,7.16,1.28,14.56-3.11,18.28-7.72,7.13-8.84.62-18.42-1-34.3-2.2-22,6.27-44,17.31-58.32,9.06-11.72,14.25-11,30.77-30.87a145,145,0,0,0,15.39-21.44,117.42,117.42,0,0,0,13.46-36Z"/></svg>